<svg xmlns="http://www.w3.org/2000/svg" width="24" height="24" viewBox="0 0 24 24">
    <g fill="none" fill-rule="evenodd">
        <g fill="#FFF">
            <g>
                <g>
                    <path d="M21.75 12c0 .385-.29.702-.663.745L21 12.75H4.813l4.717 4.72c.27.27.291.695.063.99l-.063.07c-.27.27-.695.291-.99.063l-.07-.063-6-6c-.027-.026-.051-.054-.073-.084l-.053-.083-.04-.084-.027-.08-.022-.11L2.25 12l.002-.056.013-.095.022-.083.033-.083.04-.074.047-.069.063-.07 6-6c.293-.293.767-.293 1.06 0 .27.27.291.695.063.99l-.063.07-4.719 4.72H21c.414 0 .75.336.75.75z" transform="translate(-16 -40) translate(0 24) translate(16 16)"/>
                </g>
            </g>
        </g>
    </g>
</svg>
