<svg xmlns="http://www.w3.org/2000/svg" width="20" height="20" viewBox="0 0 20 20">
    <g fill="none" fill-rule="evenodd">
        <g fill="#FFF">
            <g>
                <g>
                    <g>
                        <path d="M1.875 10c0 .32.241.585.552.62l.073.005h13.49l-3.932 3.933c-.225.225-.243.58-.052.825l.052.059c.225.225.58.243.825.052l.059-.052 5-5c.022-.022.042-.046.06-.07l.045-.07.033-.07.023-.066.018-.093.004-.073-.002-.047-.01-.078-.02-.07-.027-.07-.032-.06-.04-.058-.052-.059-5-5c-.244-.244-.64-.244-.884 0-.225.225-.243.58-.052.825l.052.059 3.933 3.933H2.5c-.345 0-.625.28-.625.625z" transform="translate(-170 -150) translate(0 128) translate(162 14) translate(8 8)"/>
                    </g>
                </g>
            </g>
        </g>
    </g>
</svg>