                    <svg
                      xmlns="http://www.w3.org/2000/svg"
                      width="24"
                      height="24"
                      viewBox="0 0 24 24"
                      fill="none"
                    >
                      <path
                        fill-rule="evenodd"
                        clip-rule="evenodd"
                        d="M9.75 5C13.4779 5 16.5 8.02208 16.5 11.75C16.5 13.3436 15.9478 14.8082 15.0242 15.9629L20.7803 21.7197C21.0732 22.0126 21.0732 22.4874 20.7803 22.7803C20.51 23.0507 20.0845 23.0715 19.7903 22.8427L19.7197 22.7803L13.9629 17.0242C12.8082 17.9478 11.3436 18.5 9.75 18.5C6.02208 18.5 3 15.4779 3 11.75C3 8.02208 6.02208 5 9.75 5ZM9.75 6.5C6.85051 6.5 4.5 8.85051 4.5 11.75C4.5 14.6495 6.85051 17 9.75 17C12.6495 17 15 14.6495 15 11.75C15 8.85051 12.6495 6.5 9.75 6.5Z"
                        fill="#6D6D6D"
                      />
                    </svg>